<?xml version="1.0" ?><svg viewBox="0 0 30 30" xmlns="http://www.w3.org/2000/svg"><title/><path d="M21.5,27H6.5A3.5,3.5,0,0,1,3,23.5V8.5A3.5,3.5,0,0,1,6.5,5H13a1,1,0,0,1,0,2H6.5A1.5,1.5,0,0,0,5,8.5v15A1.5,1.5,0,0,0,6.5,25h15A1.5,1.5,0,0,0,23,23.5V17a1,1,0,0,1,2,0v6.5A3.5,3.5,0,0,1,21.5,27Z" fill="#464646"/><path d="M25.42,10l1.23-1.23a2.51,2.51,0,0,0,0-3.54L24.77,3.35a2.57,2.57,0,0,0-3.54,0L20,4.58Z" fill="#464646"/><path d="M18.58,6l-6.29,6.29a1,1,0,0,0-.27.51l-1,5a1,1,0,0,0,.27.91A1,1,0,0,0,12,19l.2,0,5-1a1,1,0,0,0,.51-.27L24,11.42Z" fill="#464646"/></svg>
