<?xml version="1.0" ?><svg id="Layer_1" style="enable-background:new 0 0 32 32;" version="1.1" viewBox="0 0 32 32" xml:space="preserve" xmlns="http://www.w3.org/2000/svg" xmlns:xlink="http://www.w3.org/1999/xlink"><style type="text/css">
	.st0{fill:#231F20;}
</style><g><path class="st0" d="M31.8,14.4c-4.5-5.5-9.7-8.5-15-8.6C11.2,5.6,5.5,8.6,0.3,14.3c-0.3,0.4-0.3,0.9,0,1.3c4.5,5.5,9.7,8.5,15,8.6   c0.1,0,0.3,0,0.4,0c5.4,0,11-3,16.1-8.6C32.1,15.3,32.1,14.8,31.8,14.4z M15.3,22.2c-4.6-0.1-8.9-2.5-12.9-7.2   c4.7-4.9,9.6-7.4,14.4-7.3c4.6,0.1,8.9,2.5,12.9,7.2C25,19.9,20.1,22.4,15.3,22.2z"/><path class="st0" d="M16,9c-3.3,0-6,2.7-6,6s2.7,6,6,6s6-2.7,6-6S19.3,9,16,9z M16,19c-2.2,0-4-1.8-4-4s1.8-4,4-4s4,1.8,4,4   S18.2,19,16,19z"/><circle class="st0" cx="16" cy="15" r="2"/></g></svg>
